<?xml version="1.0" encoding="utf-8"?>
<!-- Generator: Adobe Illustrator 24.1.1, SVG Export Plug-In . SVG Version: 6.00 Build 0)  -->
<svg version="1.1" id="Camada_1" xmlns="http://www.w3.org/2000/svg" xmlns:xlink="http://www.w3.org/1999/xlink" x="0px" y="0px"
	 viewBox="0 0 97 31" style="enable-background:new 0 0 97 31;" xml:space="preserve">
<style type="text/css">
	.st0{fill:#E5182C;}
	.st1{font-family:'FONTSPRINGDEMO-GibsonHeavyRegular';}
	.st2{font-size:18.2396px;}
</style>
<text transform="matrix(1 0 0 1 1.6303 26.0103)" class="st0 st1 st2">POPULAR</text>
<g>
	<g>
		<path d="M2.5,11.8V4.7h1.1v7.2H2.5z M2.5,5.6v-1h4.7v1H2.5z M2.5,9v-1h3.8v1H2.5z"/>
		<path d="M8.3,11.8l2.1-7.2h1.5l2.1,7.2h-1.1l-1.7-6.3h-0.1l-1.7,6.3H8.3z M9.3,10.1v-1h3.6v1H9.3z"/>
		<path d="M15.4,11.8V4.7h1.1v7.2H15.4z M16.4,9.1v-1h1.5c0.4,0,0.7-0.1,0.9-0.3c0.2-0.2,0.3-0.5,0.3-0.9c0-0.4-0.1-0.7-0.3-1
			c-0.2-0.2-0.5-0.3-0.9-0.3h-1.5l-0.1-1h1.6c0.7,0,1.3,0.2,1.7,0.6s0.6,0.9,0.6,1.6c0,0.7-0.2,1.3-0.6,1.7c-0.4,0.4-1,0.6-1.7,0.6
			H16.4z M19.2,11.8l-1.6-3.4h1.1l1.7,3.4H19.2z"/>
		<path d="M21.9,11.8V4.7h1v7.2H21.9z M23.8,8.9l-0.8-3h-0.3V4.7h0.7l0.8,3.1h0l0.1,1.2H23.8z M24.1,8.9l0.2-1.2h0.1l0.8-3.1h0.7
			v1.3h-0.3l-0.8,3H24.1z M25.7,11.8V4.7h1v7.2H25.7z"/>
		<path d="M28.1,11.8l2.1-7.2h1.5l2.1,7.2h-1.1l-1.7-6.3h-0.1l-1.7,6.3H28.1z M29,10.1v-1h3.6v1H29z"/>
		<path d="M38.2,11.9c-2.2,0-3.3-1.2-3.3-3.7c0-1.2,0.3-2.1,0.8-2.7c0.6-0.6,1.4-1,2.4-1c0.5,0,0.9,0.1,1.3,0.2
			C39.7,5,40,5.2,40.2,5.5l-0.7,0.7c-0.2-0.2-0.3-0.4-0.6-0.5c-0.2-0.1-0.5-0.2-0.8-0.2c-0.6,0-1.2,0.2-1.6,0.7
			c-0.4,0.5-0.6,1.1-0.6,2c0,1.9,0.8,2.8,2.4,2.8c0.5,0,1-0.1,1.4-0.3l0.2,0.9C39.5,11.8,38.8,11.9,38.2,11.9z"/>
		<path d="M41.9,5.6v-1h4.4v1H41.9z M41.9,11.8v-1h4.4v1H41.9z M43.5,11.8V4.7h1.1v7.2H43.5z"/>
		<path d="M47.8,11.8l2.1-7.2h1.5l2.1,7.2h-1.1l-1.7-6.3h-0.1l-1.7,6.3H47.8z M48.8,10.1v-1h3.6v1H48.8z"/>
	</g>
</g>
</svg>
